<?xml version="1.0" encoding="UTF-8" standalone="no"?>
<svg xmlns="http://www.w3.org/2000/svg" version="1.2" baseProfile="tiny" viewBox="0.00 0.00 544.00 184.00">
<path fill="#4285f4" d="
  M 114.97 82.00
  L 70.50 82.00
  A 0.50 0.50 0.0 0 1 70.00 81.50
  L 70.00 64.75
  Q 70.00 64.00 70.75 64.00
  L 133.24 64.00
  Q 134.07 64.00 134.18 64.83
  C 137.95 94.10 126.16 121.83 98.05 133.59
  C 72.89 144.11 42.65 138.24 22.58 119.41
  C -22.25 77.34 6.78 5.41 65.90 1.17
  Q 95.12 -0.92 117.41 19.51
  A 0.47 0.47 0.0 0 1 117.42 20.20
  L 104.81 32.81
  Q 104.44 33.18 104.06 32.83
  C 84.76 15.08 55.51 15.52 36.48 33.50
  C 17.78 51.16 16.16 82.17 32.52 101.85
  C 45.51 117.48 66.09 123.43 85.77 117.78
  Q 111.92 110.26 115.33 82.40
  Q 115.38 82.00 114.97 82.00
  Z"
/>
<rect fill="#34a853" x="432.00" y="6.00" width="18.00" height="130.00" rx="0.41"/>
<path fill="#ea4335" d="
  M 231.5557 94.9523
  A 44.57 44.49 0.8 0 1 186.3688 138.8157
  A 44.57 44.49 0.8 0 1 142.4243 93.7077
  A 44.57 44.49 0.8 0 1 187.6112 49.8443
  A 44.57 44.49 0.8 0 1 231.5557 94.9523
  Z
  M 187.0839 121.2298
  A 26.90 25.07 89.8 0 0 212.0598 94.2425
  A 26.90 25.07 89.8 0 0 186.8961 67.4302
  A 26.90 25.07 89.8 0 0 161.9202 94.4175
  A 26.90 25.07 89.8 0 0 187.0839 121.2298
  Z"
/>
<path fill="#fbbc05" d="
  M 327.5632 93.5521
  A 44.57 44.49 -1.0 0 1 283.7765 138.8132
  A 44.57 44.49 -1.0 0 1 238.4368 95.1079
  A 44.57 44.49 -1.0 0 1 282.2235 49.8468
  A 44.57 44.49 -1.0 0 1 327.5632 93.5521
  Z
  M 283.0839 121.2198
  A 26.90 25.07 89.8 0 0 308.0598 94.2325
  A 26.90 25.07 89.8 0 0 282.8961 67.4202
  A 26.90 25.07 89.8 0 0 257.9202 94.4075
  A 26.90 25.07 89.8 0 0 283.0839 121.2198
  Z"
/>
<path fill="#4285f4" d="
  M 401.41 129.04
  A 0.36 0.36 0.0 0 0 400.80 128.81
  C 387.04 142.71 366.21 140.98 351.74 129.23
  C 325.08 107.60 331.27 63.73 364.76 52.32
  Q 385.53 45.25 400.92 59.77
  A 0.35 0.34 21.6 0 0 401.50 59.52
  L 401.50 52.50
  Q 401.50 52.00 402.00 52.00
  L 419.45 52.00
  Q 419.98 52.00 419.98 52.52
  Q 420.04 92.17 420.01 131.74
  C 419.99 159.96 404.57 180.09 375.27 178.26
  Q 350.67 176.72 338.81 153.14
  A 0.82 0.82 0.0 0 1 339.23 152.01
  L 354.76 145.55
  Q 355.41 145.28 355.72 145.90
  Q 363.03 160.46 377.30 160.89
  C 396.97 161.49 402.54 145.84 401.41 129.04
  Z
  M 378.7230 121.3100
  A 26.93 24.24 90.1 0 0 403.0100 94.4223
  A 26.93 24.24 90.1 0 0 378.8170 67.4500
  A 26.93 24.24 90.1 0 0 354.5300 94.3377
  A 26.93 24.24 90.1 0 0 378.7230 121.3100
  Z"
/>
<path fill="#ea4335" d="
  M 481.43 107.47
  A 0.76 0.75 -25.3 0 0 481.05 108.52
  C 490.58 126.06 512.56 124.79 523.71 109.41
  A 0.60 0.60 0.0 0 1 524.53 109.26
  L 538.70 118.72
  Q 539.20 119.06 538.83 119.54
  Q 523.89 139.38 500.65 138.53
  C 473.54 137.54 454.60 114.23 458.66 87.11
  C 461.13 70.62 471.37 57.00 487.53 51.98
  C 512.34 44.27 532.20 59.45 539.66 82.75
  A 0.64 0.64 0.0 0 1 539.30 83.54
  L 481.43 107.47
  Z
  M 483.15 75.91
  Q 477.24 83.08 477.54 92.47
  Q 477.56 92.96 478.01 92.77
  L 516.56 76.76
  A 0.72 0.72 0.0 0 0 516.89 75.70
  C 508.82 63.28 491.82 65.40 483.15 75.91
  Z"
/>
</svg>
