<svg width="272" height="92" viewBox="0 0 272 92" fill="none" xmlns="http://www.w3.org/2000/svg">
<path d="M57.4849 41H35.2499C35.1836 41 35.12 40.9737 35.0731 40.9268C35.0262 40.8799 34.9999 40.8163 34.9999 40.75V32.375C34.9999 32.125 35.1249 32 35.3749 32H66.6199C66.8966 32 67.0532 32.1384 67.0899 32.415C68.9749 47.05 63.0799 60.915 49.0249 66.795C36.4449 72.055 21.3249 69.12 11.2899 59.705C-11.1251 38.67 3.38991 2.70502 32.9499 0.58502C42.6899 -0.111647 51.2749 2.94502 58.7049 9.75502C58.729 9.77668 58.7484 9.80308 58.7618 9.83258C58.7752 9.86208 58.7824 9.89403 58.7828 9.92643C58.7833 9.95883 58.7771 9.99097 58.7645 10.0208C58.752 10.0507 58.7334 10.0777 58.7099 10.1L52.4049 16.405C52.2816 16.5284 52.1566 16.5317 52.0299 16.415C42.3799 7.54002 27.7549 7.76002 18.2399 16.75C8.8899 25.58 8.0799 41.085 16.2599 50.925C22.7549 58.74 33.0449 61.715 42.8849 58.89C51.6016 56.3834 56.5282 50.4867 57.6649 41.2C57.6816 41.0667 57.6216 41 57.4849 41Z" fill="#4285F4"/>
<path d="M224.795 3H216.205C216.092 3 216 3.09178 216 3.205V67.795C216 67.9082 216.092 68 216.205 68H224.795C224.908 68 225 67.9082 225 67.795V3.205C225 3.09178 224.908 3 224.795 3Z" fill="#34A853"/>
<path d="M115.779 47.4761C115.738 50.3971 115.121 53.2814 113.964 55.9644C112.806 58.6474 111.131 61.0765 109.033 63.113C106.935 65.1496 104.455 66.7537 101.736 67.8337C99.0172 68.9138 96.1116 69.4487 93.1854 69.4078C90.2591 69.3669 87.3696 68.7512 84.6817 67.5956C81.9938 66.44 79.5603 64.7673 77.52 62.673C75.4797 60.5787 73.8726 58.1037 72.7904 55.3895C71.7083 52.6752 71.1723 49.7748 71.2131 46.8538C71.2539 43.9328 71.8706 41.0485 73.0281 38.3655C74.1856 35.6825 75.8612 33.2534 77.9592 31.2169C80.0572 29.1803 82.5365 27.5762 85.2556 26.4962C87.9747 25.4161 90.8803 24.8812 93.8066 24.9221C96.7328 24.963 99.6223 25.5787 102.31 26.7343C104.998 27.8899 107.432 29.5626 109.472 31.6569C111.512 33.7512 113.119 36.2262 114.201 38.9404C115.284 41.6547 115.82 44.5551 115.779 47.4761ZM93.5429 60.6148C96.8674 60.6032 100.051 59.1751 102.393 56.6445C104.735 54.114 106.043 50.6883 106.031 47.1212C106.018 43.5541 104.686 40.1376 102.326 37.6235C99.9667 35.1094 96.7735 33.7035 93.449 33.715C90.1245 33.7267 86.9412 35.1548 84.5992 37.6854C82.2573 40.2159 80.9486 43.6416 80.9611 47.2087C80.9735 50.7758 82.3061 54.1923 84.6656 56.7064C87.0252 59.2205 90.2184 60.6264 93.5429 60.6148Z" fill="#EA4335"/>
<path d="M163.781 46.776C163.884 52.6748 161.636 58.373 157.53 62.6171C153.424 66.8611 147.798 69.3034 141.888 69.4065C135.979 69.5097 130.27 67.2653 126.019 63.1671C121.767 59.069 119.321 53.4527 119.218 47.5539C119.115 41.655 121.364 35.9568 125.47 31.7128C129.576 27.4687 135.202 25.0265 141.112 24.9233C147.021 24.8202 152.729 27.0645 156.981 31.1627C161.232 35.2609 163.678 40.8771 163.781 46.776ZM141.542 60.6098C144.866 60.5982 148.05 59.17 150.392 56.6395C152.733 54.1089 154.042 50.6833 154.03 47.1162C154.017 43.549 152.685 40.1326 150.325 37.6185C147.966 35.1043 144.772 33.6984 141.448 33.71C138.123 33.7216 134.94 35.1498 132.598 37.6804C130.256 40.2109 128.947 43.6365 128.96 47.2037C128.972 50.7708 130.305 54.1872 132.665 56.7014C135.024 59.2155 138.217 60.6214 141.542 60.6098Z" fill="#FBBC05"/>
<path d="M200.705 64.52C200.702 64.4859 200.69 64.4533 200.669 64.426C200.649 64.3986 200.621 64.3777 200.589 64.3656C200.557 64.3535 200.522 64.3508 200.489 64.3578C200.455 64.3648 200.424 64.3812 200.4 64.405C193.52 71.355 183.105 70.49 175.87 64.615C162.54 53.8 165.635 31.865 182.38 26.16C189.303 23.8034 195.33 25.045 200.46 29.885C200.485 29.9075 200.516 29.9224 200.55 29.9279C200.583 29.9335 200.618 29.9293 200.648 29.9161C200.679 29.9028 200.705 29.881 200.723 29.8533C200.741 29.8256 200.75 29.7932 200.75 29.76V26.25C200.75 26.0834 200.833 26 201 26H209.725C209.902 26 209.99 26.0867 209.99 26.26C210.01 39.4767 210.015 52.68 210.005 65.87C209.995 79.98 202.285 90.045 187.635 89.13C179.435 88.6167 173.358 84.43 169.405 76.57C169.379 76.5195 169.364 76.4643 169.361 76.4077C169.358 76.3512 169.366 76.2946 169.386 76.2415C169.406 76.1885 169.436 76.14 169.476 76.0993C169.515 76.0586 169.562 76.0265 169.615 76.005L177.38 72.775C177.597 72.685 177.757 72.7434 177.86 72.95C180.297 77.8034 183.893 80.3017 188.65 80.445C198.485 80.745 201.27 72.92 200.705 64.52ZM189.361 60.655C190.953 60.6578 192.53 60.3123 194.001 59.6382C195.473 58.9641 196.811 57.9746 197.938 56.7262C199.066 55.4778 199.961 53.995 200.573 52.3624C201.185 50.7298 201.502 48.9794 201.505 47.2112C201.508 45.4429 201.198 43.6915 200.591 42.0567C199.985 40.422 199.095 38.9361 197.972 37.6838C196.848 36.4315 195.514 35.4373 194.045 34.7581C192.575 34.0788 191 33.7278 189.408 33.725C187.817 33.7223 186.24 34.0678 184.768 34.7419C183.297 35.416 181.959 36.4055 180.831 37.6539C179.704 38.9023 178.808 40.3851 178.196 42.0177C177.584 43.6502 177.268 45.4006 177.265 47.1689C177.262 48.9371 177.572 50.6886 178.178 52.3233C178.785 53.958 179.675 55.444 180.798 56.6963C181.921 57.9486 183.256 58.9427 184.725 59.622C186.194 60.3012 187.77 60.6523 189.361 60.655Z" fill="#4285F4"/>
<path d="M240.716 53.7349C240.667 53.7554 240.623 53.7858 240.587 53.824C240.55 53.8623 240.522 53.9075 240.504 53.957C240.486 54.0064 240.479 54.0588 240.483 54.111C240.486 54.1632 240.501 54.2139 240.526 54.2599C245.291 63.0299 256.281 62.3949 261.856 54.7049C261.901 54.6417 261.969 54.5986 262.046 54.5846C262.122 54.5706 262.201 54.5868 262.266 54.6299L269.351 59.3599C269.517 59.4732 269.539 59.6099 269.416 59.7699C264.436 66.3832 258.072 69.5482 250.326 69.2649C236.771 68.7699 227.301 57.1149 229.331 43.5549C230.566 35.3099 235.686 28.4999 243.766 25.9899C256.171 22.1349 266.101 29.7249 269.831 41.3749C269.856 41.4513 269.851 41.5344 269.818 41.6076C269.785 41.6808 269.725 41.7387 269.651 41.7699L240.716 53.7349ZM241.576 37.9549C239.606 40.3449 238.671 43.1049 238.771 46.2349C238.777 46.3982 238.856 46.4482 239.006 46.3849L258.281 38.3799C258.33 38.3598 258.374 38.3291 258.41 38.29C258.446 38.2509 258.472 38.2044 258.488 38.1538C258.504 38.1031 258.508 38.0496 258.501 37.9971C258.494 37.9446 258.475 37.8943 258.446 37.8499C254.411 31.6399 245.911 32.6999 241.576 37.9549Z" fill="#EA4335"/>
</svg>
