<svg width="272" height="92" viewBox="0 0 272 92" fill="none" xmlns="http://www.w3.org/2000/svg">
<path d="M57.6806 41.63C57.6833 41.5968 57.6792 41.5634 57.6684 41.532C57.6576 41.5005 57.6403 41.4716 57.6178 41.4472C57.5952 41.4227 57.5678 41.4032 57.5373 41.3899C57.5068 41.3767 57.4738 41.3698 57.4406 41.37L35.7006 41.38C35.4206 41.38 35.2806 41.2366 35.2806 40.95V32.49C35.2806 32.1633 35.4439 32 35.7706 32H66.4806C66.7939 32 66.9772 32.1533 67.0306 32.46C70.5706 54.48 53.5506 71.66 31.9106 69.17C13.1106 67 -1.95943 50.28 0.620565 30.8C2.47057 16.84 12.6406 5.42996 26.2306 1.67996C38.1106 -1.59337 48.9439 1.07996 58.7306 9.69996C58.8706 9.81996 58.8739 9.9433 58.7406 10.07L52.4406 16.39C52.3206 16.51 52.2006 16.5133 52.0806 16.4C39.6306 4.99996 19.8306 8.89996 12.8006 24.52C8.00057 35.19 11.0906 47.65 20.1806 54.79C32.7406 64.64 56.0906 60.19 57.6806 41.63Z" fill="white"/>
<path d="M224.6 3H215.9C215.679 3 215.5 3.17909 215.5 3.4V67.6C215.5 67.8209 215.679 68 215.9 68H224.6C224.821 68 225 67.8209 225 67.6V3.4C225 3.17909 224.821 3 224.6 3Z" fill="white"/>
<path d="M115.75 47.1599C115.75 53.0636 113.405 58.7255 109.231 62.9001C105.056 67.0747 99.3942 69.4199 93.4905 69.4199C87.5867 69.4199 81.9248 67.0747 77.7503 62.9001C73.5757 58.7255 71.2305 53.0636 71.2305 47.1599C71.2305 41.2562 73.5757 35.5943 77.7503 31.4197C81.9248 27.2451 87.5867 24.8999 93.4905 24.8999C99.3942 24.8999 105.056 27.2451 109.231 31.4197C113.405 35.5943 115.75 41.2562 115.75 47.1599ZM93.4905 60.6499C96.8269 60.6499 100.027 59.2286 102.386 56.6988C104.745 54.1689 106.07 50.7377 106.07 47.1599C106.07 43.5821 104.745 40.1509 102.386 37.621C100.027 35.0912 96.8269 33.6699 93.4905 33.6699C90.154 33.6699 86.9543 35.0912 84.5951 37.621C82.2359 40.1509 80.9105 43.5821 80.9105 47.1599C80.9105 50.7377 82.2359 54.1689 84.5951 56.6988C86.9543 59.2286 90.154 60.6499 93.4905 60.6499Z" fill="white"/>
<path d="M163.74 47.1599C163.74 53.061 161.396 58.7204 157.223 62.893C153.051 67.0657 147.391 69.4099 141.49 69.4099C135.589 69.4099 129.93 67.0657 125.757 62.893C121.584 58.7204 119.24 53.061 119.24 47.1599C119.24 41.2588 121.584 35.5995 125.757 31.4268C129.93 27.2541 135.589 24.9099 141.49 24.9099C147.391 24.9099 153.051 27.2541 157.223 31.4268C161.396 35.5995 163.74 41.2588 163.74 47.1599ZM141.49 60.6499C144.827 60.6499 148.026 59.2286 150.386 56.6988C152.745 54.1689 154.07 50.7377 154.07 47.1599C154.07 43.5821 152.745 40.1509 150.386 37.621C148.026 35.0912 144.827 33.6699 141.49 33.6699C138.154 33.6699 134.954 35.0912 132.595 37.621C130.236 40.1509 128.91 43.5821 128.91 47.1599C128.91 48.9314 129.236 50.6856 129.868 52.3223C130.5 53.959 131.427 55.4461 132.595 56.6988C133.763 57.9514 135.15 58.9451 136.676 59.623C138.202 60.301 139.838 60.6499 141.49 60.6499Z" fill="white"/>
<path d="M199.929 64.61C190.879 73.37 177.709 68.98 171.129 59.82C166.829 53.8466 165.946 47.1566 168.479 39.75C172.799 27.09 189.429 19.54 200.169 29.83C200.196 29.8554 200.23 29.8723 200.267 29.8786C200.303 29.885 200.341 29.8804 200.375 29.8655C200.409 29.8506 200.438 29.826 200.459 29.7948C200.479 29.7636 200.489 29.7271 200.489 29.69L200.509 27.18C200.509 26.6466 200.779 26.38 201.319 26.38L208.979 26.37C209.492 26.37 209.749 26.6266 209.749 27.14C209.762 40.32 209.732 53.6866 209.659 67.24C209.519 92.26 179.579 96.99 169.099 76.5C169.079 76.4622 169.067 76.4207 169.064 76.3781C169.06 76.3354 169.066 76.2925 169.08 76.2521C169.094 76.2118 169.116 76.1747 169.146 76.1434C169.175 76.112 169.21 76.087 169.249 76.07L177.199 72.76C177.339 72.7066 177.442 72.7466 177.509 72.88C180.529 78.7533 185.009 81.2266 190.949 80.3C199.109 79.02 201.039 71.94 200.449 64.8C200.409 64.3733 200.236 64.31 199.929 64.61ZM189.149 60.67C190.746 60.67 192.327 60.321 193.803 59.6431C195.278 58.9652 196.618 57.9715 197.748 56.7188C198.877 55.4662 199.772 53.979 200.383 52.3424C200.995 50.7057 201.309 48.9515 201.309 47.18C201.309 43.6022 200.028 40.171 197.748 37.6411C195.467 35.1112 192.374 33.69 189.149 33.69C185.924 33.69 182.831 35.1112 180.551 37.6411C178.27 40.171 176.989 43.6022 176.989 47.18C176.989 48.9515 177.304 50.7057 177.915 52.3424C178.526 53.979 179.422 55.4662 180.551 56.7188C181.68 57.9715 183.02 58.9652 184.496 59.6431C185.971 60.321 187.552 60.67 189.149 60.67Z" fill="white"/>
<path d="M240.699 54.31C244.649 63.5 256.779 61.89 261.849 54.72C261.962 54.56 262.106 54.5367 262.279 54.65L269.329 59.39C269.357 59.4082 269.381 59.4317 269.399 59.4593C269.418 59.4868 269.431 59.5178 269.438 59.5504C269.444 59.5829 269.444 59.6165 269.437 59.6491C269.431 59.6816 269.418 59.7126 269.399 59.74C259.239 73.85 237.849 72.17 230.779 56.02C228.109 49.93 228.739 41.96 231.769 36.01C237.349 25.03 252.469 21.05 262.349 29.65C265.936 32.77 268.379 36.6034 269.679 41.15C269.772 41.49 269.659 41.7267 269.339 41.86L240.989 53.6C240.649 53.74 240.552 53.9767 240.699 54.31ZM238.569 45.52C238.449 46.28 238.746 46.5134 239.459 46.22L258.209 38.44C258.529 38.3067 258.599 38.09 258.419 37.79C255.089 32.21 247.549 32.6 243.079 36.35C240.699 38.35 239.196 41.4067 238.569 45.52Z" fill="white"/>
</svg>
